# xmcd
#
# Track frame offsets:
# 150
# 17593
# 38349
# 59893
# 77040
# 89029
# 110477
# 128006
# 144211
# 167577
# 187128
#
# Disc length: 2835 seconds
#
# Revision: 1
# Processed by: cddbd v1.5.1PL0 Copyright (c) Steve Scherf et al.
# Submitted via: CedeCatalogueitor 2.6.0.6 http://personales.ya.com/cdcatalogueitor
#
DISCID=8f0b110b
DTITLE=Varios - En Tu Fiesta Me Colé - Homenaje A Mecano CD 1
DYEAR=2005
DGENRE=
TTITLE0=Una Rosa Es Una Rosa
TTITLE1=Cruz De Navajas
TTITLE2=La Fuerza Del Destino
TTITLE3=Hoy No Me Puedo Levantar
TTITLE4=Los Amantes
TTITLE5=Mujer Contra Mujer
TTITLE6=Aire
TTITLE7=No Es Serio Este Cementerio
TTITLE8=Japón
TTITLE9=Ay, Qué Pesado
TTITLE10=Naturaleza Muerta
EXTD=
EXTT0=
EXTT1=
EXTT2=
EXTT3=
EXTT4=
EXTT5=
EXTT6=
EXTT7=
EXTT8=
EXTT9=
EXTT10=
PLAYORDER=
